<?xml version="1.0" encoding="UTF-8"?>
<svg id="Capa_1" data-name="Capa 1" xmlns="http://www.w3.org/2000/svg" viewBox="0 0 130 60">
  <defs>
    <style>
      .cls-1 {
        fill: #0d3393;
        stroke-width: 0px;
      }
    </style>
  </defs>
  <path class="cls-1" d="m103.44,58.42c0-.87-.51-1.58-1.13-1.58H27.69c-.62,0-1.13.71-1.13,1.58s.51,1.58,1.13,1.58h74.61c.62,0,1.13-.71,1.13-1.58Z"/>
  <g>
    <path class="cls-1" d="m96.88,25.32c-.35-2.64-1.05-5.19-2.05-7.59-1.82-4.33-4.7-8.1-8.56-11.21-3.08-2.46-6.61-4.27-10.51-5.37C72.99.38,70.43-.03,67.78,0c-1.26.01-2.57.15-3.83.27-2.77.3-5.42,1.06-8.18,2.34-2.93,1.37-5.4,3.04-7.49,5.1-.5.5-1.09.74-1.82.73-2.38-.03-4.78-.03-7.17-.03h-2.41c-.16,0-.31,0-.46.03-.34.05-.59.27-.7.55-.11.27-.05.55.12.78.19.23.46.32.91.32h7.27c.16,0,.32.01.5.03l1.06.07-.46.73c-.27.4-.52.79-.79,1.18-.58.87-1.13,1.7-1.61,2.56-.69,1.24-1.32,2.53-1.86,3.88-.31.79-.55,1.51-1,2.87-.23.69-.41,1.27-.54,1.67h-4.99c-.75-.01-1.51-.01-2.25.01-.57.01-.74.39-.78.71-.05.34.19.69.57.81.27.08.59.12.93.13,1.18.01,2.37,0,3.55,0h2.66c-.14,1.49-.85,10.21,3.07,17.69,2.25,4.3,5.7,7.64,5.7,7.64.79.76,1.62,1.48,2.5,2.16,4.71,3.65,10.04,5.68,15.85,6.04,1.53.09,3.22.04,5.29-.16,2.37-.23,4.74-.82,7.23-1.83,3.31-1.33,6.36-3.27,9.07-5.76,2.76-2.54,5.01-5.6,6.67-9.08,1.49-3.11,2.38-6.36,2.65-9.69.17-2.26.12-4.41-.15-6.42Zm-5.33,5.22c.16.32.59.47.97.34.28-.11.55-.23.82-.36.71-.28,1.41-.56,2.12-.84-.04,1.57-.21,3.52-.73,5.71-.57,2.42-1.38,4.4-2.13,5.91l-.16.28-1-.08c-.63-.05-1.26-.11-1.91-.15-.36-.03-.74-.04-1.1-.01-.38.03-.63.27-.7.66-.05.31.04.69.43.85.22.09.5.12.78.15.21.02.43.04.65.06.18.01.36.03.54.04l1.48.11-.46.71c-2.1,3.24-4.67,5.88-7.88,8.07l-.27.19-1.02-.69c-.67-.44-1.33-.89-1.99-1.32-.23-.15-.46-.24-.65-.26-.47-.05-.69.07-.86.52-.12.32.01.69.32.91.28.2.58.4.86.59l.48.32c.11.07.2.15.34.26l.82.63-.69.36c-3.23,1.74-6.75,2.73-10.76,3.07h-.31s-.27-.42-.27-.42c-.08-.15-.17-.3-.24-.44l-.51-1.04c-.26-.51-.51-1.04-.78-1.55-.24-.47-.66-.63-1.08-.43-.61.31-.48.85-.36,1.14.19.44.4.89.62,1.36l.66,1.45-.83-.04c-3.97-.23-7.52-1.16-10.87-2.81l-.28-.13v-.66c0-.26,0-.51.01-.77.01-.32.03-.65.05-.97.03-.5.07-1,.08-1.49.01-.78-.43-.89-.75-.9-.4-.07-.75.35-.81.81-.05.5-.09.98-.15,1.49l-.15,1.56-.7-.44c-3.24-2.09-5.87-4.64-8.02-7.83l-.17-.27.26-.46c.09-.16.19-.32.3-.48l.65-.98c.28-.43.58-.85.86-1.29.26-.4.26-.62.16-.82-.15-.31-.39-.5-.67-.52-.28-.04-.57.11-.77.36-.23.3-.43.59-.65.9-.12.17-.24.36-.38.54-.07.09-.15.17-.23.26l-.39.38-.43-.32c-.75-1.33-1.62-3.15-2.25-5.41-.63-2.27-.83-4.27-.87-5.8.42-.19.85-.38,1.27-.56.71-.34,1.44-.7,2.14-1.06.28-.15.46-.38.5-.63.04-.26-.07-.5-.27-.7-.34-.31-.58-.27-.75-.2-.26.11-.5.22-.75.34-.71.26-1.42.52-2.13.78,0-1.59.14-3.65.7-5.99.54-2.24,1.3-4.08,2-5.46l.15-.3,2.69.12c.16.01.34.03.5.04.28.01.57.04.85.03.42-.01.7-.26.77-.65.05-.39-.19-.78-.57-.89-.23-.07-.5-.09-.79-.11l-.34-.03c-.11-.01-.2-.03-.31-.03-.16,0-.34-.01-.5-.04s-.3-.08-.43-.13l-.77-.3.34-.52c2.14-3.27,4.7-5.88,7.83-7.95l.28-.19,1.13.77c.63.42,1.26.83,1.88,1.26.27.17.48.24.73.26.34,0,.57-.15.69-.46.13-.35.11-.62-.09-.81-.31-.27-.65-.5-.98-.74l-.36-.26c-.15-.12-.3-.22-.47-.34l-.97-.67.74-.39c3.46-1.76,7.01-2.76,10.89-3.03l.34-.03,1.06,2.15c.08.16.15.32.23.48.12.28.24.55.39.82.27.48.67.65,1.12.43.43-.2.58-.7.35-1.2-.2-.43-.4-.85-.63-1.31l-.71-1.45.86.05c4.06.23,7.64,1.16,10.95,2.83l.27.13v.57c.01.19.01.36,0,.54l-.11,1.1c-.05.54-.11,1.06-.15,1.6-.04.5.32.94.79.98.46.04.82-.38.87-.91.01-.16.03-.32.05-.48.01-.16.04-.34.05-.51.01-.23.03-.47.04-.7l.05-.96.63.2c2.05.69,7.09,5.58,8.17,7.94l.12.26-1.74,2.61c-.16.24-.27.39-.35.55-.22.43-.15.79.24,1.08.26.19.61.34,1.05-.16.2-.22.35-.46.51-.69l1.35-1.94.38.74c1.78,3.44,2.77,7,3.05,10.86l.03.34-2.53,1.25c-.35.17-.71.34-1.05.54-.38.23-.51.7-.3,1.12Z"/>
    <path class="cls-1" d="m37.19,17.12c-.17.34-.38.47-.73.47h-4.84c-.9.01-1.8.01-2.7,0-.19,0-.46-.05-.62-.24-.15-.16-.2-.39-.17-.69.04-.28.3-.57.58-.61.07-.01.15-.01.24-.01h7.32c.47-.01.65.04.77.22.3.42.28.63.16.86Z"/>
    <path class="cls-1" d="m86.59,25.64c-.5-2.53-1.37-4.76-2.67-6.74-1.57-2.42-3.61-4.4-6.01-5.89-2.89-1.79-6.08-2.74-9.49-2.84-.13-.01-.27-.01-.4-.01-1.66,0-3.42.28-5.5.87-4.04,1.14-7.31,3.36-9.73,6.62-2.33,3.12-3.58,6.88-3.71,11.13-.03,1.09.12,2.23.26,3.34l.03.13c.31,2.48,1.17,4.86,2.54,7.08,2.02,3.27,4.84,5.68,8.4,7.16,2.54,1.06,5.29,1.61,8.15,1.66.74,0,1.52-.12,2.26-.23l.27-.05c3.63-.57,6.93-2.15,9.77-4.72,3.19-2.89,4.52-6.13,4.98-7.35,1.67-4.47,1.19-8.4.87-10.14Zm-1.7,7.17c-.42,1.95-1.1,3.44-1.54,4.28-.65,1.26-1.46,2.43-2.42,3.51-1.72,1.92-3.78,3.42-6.11,4.44-1.95.85-4.04,1.33-6.22,1.43-1.75.07-3.58-.19-5.77-.81-3.35-.96-6.15-2.8-8.33-5.48-2.46-3.05-3.74-6.75-3.79-11.01-.03-1.37.15-2.8.52-4.36,1.04-4.32,3.36-7.68,6.92-10.01,4.05-2.65,8.42-3.54,13.01-2.66,5.37,1.02,9.47,4.06,12.18,9.04.78,1.43,1.31,3.01,1.62,4.71.3,1.61.54,4.07-.07,6.91Z"/>
    <path class="cls-1" d="m74.47,41.01c-.5-.7-1.01-1.39-1.53-2.09-.82-1.12-1.66-2.25-2.48-3.39-.3-.4-.62-.54-1.1-.43-.91.19-1.82.19-2.74,0-.11-.03-.22-.04-.31-.04-.34,0-.59.15-.81.46-.82,1.16-1.67,2.29-2.5,3.43l-1.22,1.64c-.15.2-.3.4-.43.62-.24.43-.17.78.22,1.08.22.16.48.28.7.38,1.88.79,3.75,1.18,5.69,1.2l.75-.07c.55-.04,1.12-.09,1.68-.17,1.24-.17,2.49-.55,3.71-1.13.24-.12.57-.32.63-.63.08-.31-.09-.63-.26-.85Zm-2.42.38c-.74.5-2.38.75-4.04.75s-3.23-.24-4.08-.71l-.5-.28,3.09-4.25h2.87l3.09,4.2-.44.3Z"/>
    <path class="cls-1" d="m80.68,21.88c-.91-1.63-2.17-3.08-3.71-4.29-1.74-1.36-3.74-2.29-5.96-2.76-.42-.09-.73-.07-.93.07-.19.15-.32.43-.38.85-.04.22-.04.43-.04.63v5.93c-.01.67.24,1.08.81,1.32.74.31,1.39.78,1.99,1.47.38.43.77.54,1.35.34,1.16-.39,2.31-.77,3.47-1.16.97-.31,1.92-.63,2.89-.96.23-.08.54-.24.66-.52.12-.32-.01-.67-.15-.91Zm-7.04,1.88l-2.27-1.67v-5.48l.66.2c2.56.81,4.66,2.31,6.4,4.64l.43.57-5.22,1.74Z"/>
    <path class="cls-1" d="m62.77,32.33c-.47-.82-.74-1.64-.83-2.54-.07-.54-.32-.86-.86-1.04-1.2-.39-2.41-.79-3.61-1.2-.94-.31-1.87-.62-2.81-.93-.23-.08-.55-.13-.82.03-.27.16-.38.48-.42.71-.07.36-.11.74-.15,1.14l-.05.55c.03.28.05.57.09.86.07.67.13,1.37.27,2.05.51,2.7,1.74,5.11,3.63,7.13.2.23.44.36.69.34.26-.01.48-.16.69-.4.22-.3.43-.58.63-.87l3.46-4.71c.28-.38.31-.74.09-1.12Zm-4.79,4.74l-.42-.32c-1.43-1.16-2.89-5.58-2.52-7.66l.11-.58,5.02,1.68.89,2.66-3.08,4.21Z"/>
    <path class="cls-1" d="m82.16,26.7c-.18-.07-.4-.09-.4-.09-.23,0-.51.05-.85.16-.87.28-1.74.58-2.61.86-1.17.4-2.35.79-3.53,1.17-.48.15-.71.42-.75.91-.07.83-.32,1.66-.75,2.41-.32.59-.28,1.06.16,1.6.39.5.77,1.02,1.14,1.53l1.18,1.64c.52.7,1.04,1.4,1.56,2.1.13.18.38.43.71.44,0,0,.18,0,.36-.09,2.21-1.14,3.48-5.76,3.48-5.76,1.12-4.08.81-6.68.31-6.89Zm-1.16,2.5c-.08,2.87-.89,5.33-2.46,7.55l-.4.57-3.27-4.43.87-2.69,5.27-1.71v.71Z"/>
    <path class="cls-1" d="m66.18,18.23c0-.87,0-1.76.01-2.64,0-.27-.08-.46-.28-.65-.15-.12-.3-.17-.5-.17-.16,0-.36.03-.61.08-1.36.3-2.66.78-4,1.51-1.51.82-2.89,1.99-4.24,3.58-.55.63-1,1.39-1.37,2.05-.12.22-.24.52-.13.79s.38.4.59.47c1.57.55,3.16,1.08,4.75,1.6l1.88.62c.4.13.69.08.96-.22.73-.77,1.49-1.33,2.35-1.7.43-.19.61-.47.59-.93-.01-.82-.01-1.63-.01-2.44v-1.01s0-.96,0-.96Zm-1.59,3.83l-2.27,1.7-5.26-1.76.44-.57c1.87-2.38,3.93-3.85,6.45-4.62l.65-.2v5.45Z"/>
    <path class="cls-1" d="m67.98,25.3h-.03c-1.05,0-2.03.4-2.77,1.13-.73.73-1.12,1.68-1.12,2.69.01,2.62,2.03,3.86,3.9,3.9,1.05,0,2.06-.42,2.79-1.14.73-.71,1.1-1.67,1.09-2.73,0-2.18-1.67-3.83-3.86-3.85Zm1.48,5.53c-.38.34-.86.52-1.36.52h-.13c-1.26,0-2.23-.93-2.25-2.17-.01-.57.22-1.14.65-1.57.42-.43.96-.69,1.59-.66.62,0,1.24.27,1.7.75.39.42.61.93.58,1.45-.03.65-.3,1.25-.77,1.67Z"/>
  </g>
</svg>