<?xml version="1.0" encoding="UTF-8"?>
<svg id="Capa_1" data-name="Capa 1" xmlns="http://www.w3.org/2000/svg" viewBox="0 0 130 60">
  <defs>
    <style>
      .cls-1 {
        fill: #0d3393;
        stroke-width: 0px;
      }
    </style>
  </defs>
  <path class="cls-1" d="M96.18,60h-62.36c-1.93,0-3.5-1.57-3.5-3.5V3.5c0-1.93,1.57-3.5,3.5-3.5h62.36c1.93,0,3.5,1.57,3.5,3.5v53c0,1.93-1.57,3.5-3.5,3.5ZM33.82,1.58c-1.06,0-1.91.86-1.91,1.91v53c0,1.06.86,1.92,1.91,1.92h62.36c1.06,0,1.91-.86,1.91-1.92V3.5c0-1.06-.86-1.91-1.91-1.91h-62.36Z"/>
  <path class="cls-1" d="M90.73,60h-51.46V20.09c0-1.69,1.37-3.06,3.06-3.06h45.34c1.69,0,3.06,1.37,3.06,3.06v39.91ZM40.85,58.42h48.3V20.09c0-.82-.66-1.48-1.48-1.48h-45.34c-.82,0-1.48.66-1.48,1.48v38.33Z"/>
  <g>
    <path class="cls-1" d="M80.8,52.2c-.18.58-.41,1.13-.88,1.56-.06.06-.07.19-.07.29-.01.34,0,.68-.01,1.02-.05.83-.64,1.4-1.46,1.4-1.67,0-3.33,0-5,0-.82,0-1.43-.61-1.46-1.44,0-.16,0-.33,0-.51h-13.81c0,.18,0,.36,0,.54-.02.79-.63,1.4-1.42,1.41-1.69,0-3.37,0-5.06,0-.81,0-1.42-.62-1.44-1.43,0-.4,0-.8,0-1.21-.78-.69-1.01-1.58-.99-2.58.02-1.71.03-3.41,0-5.12-.03-1.25.49-2.22,1.39-3.03.52-.47,1.06-.91,1.64-1.41-.2,0-.34-.01-.47-.02-.96-.05-1.65-.8-1.54-1.67.1-.86,1.05-1.5,1.96-1.28.34.08.67.25,1,.4.38.16.74.34,1.14.53.06-.11.11-.21.16-.3.4-.76.8-1.53,1.21-2.29.15-.27.33-.52.51-.77.73-1.08,1.78-1.55,3.05-1.55,3.86,0,7.71,0,11.57,0,1.28,0,2.37.46,3.07,1.57.56.89,1.05,1.83,1.57,2.75.1.18.19.36.29.58.11-.05.21-.08.31-.13.48-.22.95-.44,1.43-.66.45-.21.91-.23,1.38-.05.69.27,1.07.89.98,1.6-.08.63-.69,1.19-1.38,1.25-.18.02-.36.02-.62.04.32.27.59.49.84.72.43.39.88.78,1.29,1.19.44.45.66,1.03.85,1.62v6.97ZM53.99,41.52c-.14.12-.25.21-.37.31-.77.65-1.54,1.3-2.3,1.96-.61.52-1.07,1.15-1.09,1.96-.04,1.3-.03,2.61,0,3.92.02,1.03.65,1.69,1.66,1.82.17.02.35.02.52.02,8.41,0,16.82,0,25.23,0,.13,0,.27,0,.4,0,.93-.05,1.57-.6,1.75-1.49.04-.2.04-.41.04-.61,0-1.12-.01-2.24,0-3.36.01-.72-.23-1.33-.7-1.85-.27-.29-.58-.55-.88-.81-.71-.61-1.44-1.22-2.18-1.85-.34.65-.89.98-1.58,1.09-.23.04-.47.04-.71.04-5.83,0-11.66,0-17.49,0-.11,0-.23,0-.34,0-.84-.03-1.52-.33-1.96-1.13ZM65.04,41.65c2.06,0,4.11,0,6.17,0,.94,0,1.87.01,2.81,0,.27,0,.55-.08.79-.19.38-.19.45-.52.25-.9-.35-.68-.68-1.38-1.05-2.06-.32-.58-.67-1.15-1.04-1.71-.35-.53-.86-.85-1.49-.96-.29-.05-.59-.08-.89-.08-3.62,0-7.24,0-10.85,0-.2,0-.39,0-.59,0-.89.03-1.64.35-2.15,1.12-.22.32-.44.64-.63.99-.46.87-.9,1.75-1.36,2.63-.25.48-.13.86.39,1.04.25.09.52.12.78.12,2.95,0,5.9,0,8.85,0ZM79.76,51.91c-.75.59-1.6.61-2.47.61-8.18,0-16.37,0-24.55,0-.86,0-1.71-.04-2.49-.63.11.63.37,1.1.88,1.33.34.15.73.25,1.09.25,8.53.01,17.07.01,25.6,0,.19,0,.39-.03.58-.06.61-.11,1.31-.64,1.36-1.51ZM57.09,54.49c-.11,0-.2,0-.29,0-1.86-.04-3.73.08-5.6-.08,0,.12,0,.26,0,.39,0,.53.13.66.65.66,1.47,0,2.94-.02,4.41,0,.84.01.89-.2.83-.98ZM72.98,54.51c-.15.74.02.96.72.96.88,0,1.77,0,2.65,0,.66,0,1.32,0,1.97,0,.35,0,.5-.16.51-.51,0-.18,0-.37,0-.51-1.97.13-3.92.01-5.86.07ZM53.6,40.56s0-.07,0-.11c-.54-.24-1.07-.5-1.62-.72-.25-.1-.5-.01-.66.2-.08.1-.11.3-.07.41.09.25.32.32.57.32.48,0,.96,0,1.44,0,.11,0,.22-.07.33-.1ZM76.43,40.44s0,.07,0,.1c.11.04.21.11.32.11.5.01,1.01.01,1.51,0,.33,0,.58-.23.57-.48,0-.26-.29-.49-.62-.48-.08,0-.17.02-.24.05-.51.23-1.02.47-1.54.7Z"/>
    <path class="cls-1" d="M65.04,46.59c1.49,0,2.98,0,4.47,0,.51,0,.95.16,1.25.6.25.37.24.79.16,1.19-.1.49-.23.98-.41,1.45-.18.47-.54.72-1.07.72-2.93,0-5.86,0-8.79,0-.51,0-.85-.23-1.05-.67-.27-.59-.45-1.21-.46-1.87-.02-.87.49-1.42,1.37-1.42,1.51,0,3.02,0,4.53,0ZM69.59,49.53c.12-.46.26-.91.34-1.37.08-.48-.02-.57-.53-.58-.02,0-.04,0-.06,0-2.87,0-5.73,0-8.6,0-.12,0-.26-.02-.36.03-.09.04-.22.16-.22.24-.02.59.16,1.15.4,1.67h9.03Z"/>
    <path class="cls-1" d="M55.03,50.55c-.49,0-.99,0-1.48,0-1.14,0-1.96-.61-2.26-1.71-.27-.96-.08-1.84.6-2.58.66-.72,1.66-.87,2.5-.37,1.02.6,2.02,1.22,3.02,1.85.78.5.95,1.56.38,2.29-.25.33-.59.51-1.01.51-.59,0-1.17,0-1.76,0h0ZM55.01,49.54c.54,0,1.09,0,1.63,0,.32,0,.46-.16.47-.48,0-.23-.1-.39-.29-.51-.98-.6-1.95-1.2-2.94-1.8-.4-.24-.81-.19-1.17.11-.29.24-.44.56-.5.92-.18.99.44,1.75,1.44,1.75.45,0,.9,0,1.35,0Z"/>
    <path class="cls-1" d="M75,50.55c-.52,0-1.05-.02-1.57,0-.84.04-1.28-.51-1.44-1.02-.21-.69.03-1.4.63-1.78.9-.57,1.81-1.13,2.73-1.67.27-.16.55-.33.85-.41.77-.2,1.44.04,1.98.61.94.98.91,2.67-.03,3.64-.41.41-.9.64-1.49.63-.55,0-1.11,0-1.66,0ZM75.05,49.54c.51,0,1.03,0,1.54,0,.45,0,.79-.2,1.02-.57.27-.42.31-.89.19-1.36-.18-.74-.97-1.35-1.85-.73-.81.57-1.69,1.05-2.54,1.57-.1.06-.2.11-.28.18-.18.15-.24.41-.15.64.08.21.25.27.46.27.53,0,1.07,0,1.6,0Z"/>
  </g>
</svg>