<?xml version="1.0" encoding="UTF-8"?>
<svg id="Capa_1" xmlns="http://www.w3.org/2000/svg" version="1.1" viewBox="0 0 30 30">
  <!-- Generator: Adobe Illustrator 30.2.1, SVG Export Plug-In . SVG Version: 2.1.1 Build 1)  -->
  <defs>
    <style>
      .st0 {
        fill: #0d3393;
      }
    </style>
  </defs>
  <path class="st0" d="M18.53,10.92c-.82-1.99-2.11-3.72-3.26-5.17-.08-.1-.18-.15-.3-.15s-.24.06-.31.16c-1.25,1.6-2.44,3.18-3.19,5.04-.14.34-.31.87-.3,1.39.03,2.02,1.71,3.68,3.76,3.69h.05c1.26,0,2.44-.63,3.14-1.69.68-1.01.82-2.24.4-3.28h0ZM15.05,15.13c-.32,0-.65-.05-.99-.16-1.14-.36-1.84-1.16-2.08-2.4-.08-.42-.04-.83.11-1.26.58-1.56,1.52-2.85,2.51-4.22l.36-.5.17.23c1.02,1.39,1.98,2.71,2.63,4.26.46,1.12.26,2.15-.59,3.07-.6.65-1.31.98-2.12.98Z"/>
  <g>
    <path class="st0" d="M29.91,16.93c-.09-.09-.23-.13-.35-.12-4.58-.02-8.14,0-9.85,0h-.9c-.4,0-.67.1-.82.31s-.15.5-.02.88c.52,1.46.4,2.83-.38,4.08-.58.93-1.46,1.47-2.41,1.49h-.05c-.93,0-1.8-.5-2.4-1.39-.84-1.24-1-2.65-.46-4.17.14-.39.13-.69,0-.89-.21-.3-.68-.3-.84-.31-.93,0-5.42-.02-11.05,0-.21,0-.4.17-.42.37,0,.11.03.22.1.3.08.09.19.14.31.15h11.1c-.03.16-.07.32-.1.47-.09.4-.17.77-.2,1.15-.12,1.77.45,3.2,1.67,4.27.67.58,1.47.87,2.28.87.73,0,1.47-.24,2.11-.74,1.35-1.03,1.97-2.51,1.85-4.39-.03-.39-.11-.79-.2-1.17-.03-.16-.07-.31-.1-.47h10.77c.13.02.25-.02.35-.11.09-.08.14-.18.15-.29,0-.11-.04-.23-.13-.31h0Z"/>
    <path class="st0" d="M29.32,20.54h-.02c-1.53-.06-4.62-.03-6.87,0-1.32.01-2.36.02-2.67.01h-.02c-.22,0-.41.17-.43.39,0,.11.03.22.12.31s.19.13.31.13h1.02c4.57,0,7.87,0,8.53,0,.13,0,.26-.06.34-.16.08-.09.12-.21.1-.32-.03-.2-.22-.36-.43-.36h0Z"/>
    <path class="st0" d="M10.18,20.54h-.02c-1.53-.06-4.62-.03-6.87,0-1.32.01-2.36.03-2.67.01h-.02c-.22,0-.41.17-.43.39,0,.11.03.22.12.31.08.09.2.13.32.13h1.01c4.57,0,7.87,0,8.53,0,.13,0,.25-.06.34-.16.08-.09.12-.21.1-.32-.03-.2-.22-.36-.43-.36h0Z"/>
  </g>
</svg>