<?xml version="1.0" encoding="iso-8859-1"?>
<!-- Generator: Adobe Illustrator 27.9.0, SVG Export Plug-In . SVG Version: 6.00 Build 0)  -->
<svg version="1.1" id="Capa_1" xmlns="http://www.w3.org/2000/svg" xmlns:xlink="http://www.w3.org/1999/xlink" x="0px" y="0px"
	 viewBox="0 0 130 60" style="enable-background:new 0 0 130 60;" xml:space="preserve">
<rect x="65.514" y="14.659" transform="matrix(0.7071 -0.7071 0.7071 0.7071 7.0241 60.1751)" style="display:none;fill:#5D626D;" width="21.271" height="13.9"/>
<g>
	<g>
		<path style="fill:#0D3393;" d="M62.679,28.229c0.199,0.147,0.456,0.29,0.656,0.49c5.155,5.146,10.302,10.3,15.457,15.446
			c1.067,1.065,1.733,2.318,1.86,3.828c0.042,0.493,0.007,0.993,0.007,1.625c0.479,0.466,1.032,1.022,1.605,1.556
			c1.048,0.975,1.714,2.102,1.47,3.565c1.581,1.559,4.057,1.715,5.657,0.223c1.93-1.801,3.857-3.63,5.576-5.627
			c3.387-3.933,3.072-9.792-0.594-13.576c-1.375-1.419-2.798-2.79-4.183-4.199c-2.182-2.22-3.337-4.907-3.423-8.006
			c-0.089-3.182,0.974-5.981,3.121-8.34c0.768-0.844,1.577-1.657,2.425-2.42c0.352-0.317,0.834-0.591,1.294-0.671
			c1.404-0.243,2.461,1.036,1.985,2.378c-0.145,0.409-0.432,0.792-0.73,1.116c-0.693,0.753-1.454,1.442-2.148,2.193
			c-2.816,3.048-2.852,7.723-0.042,10.774c1.338,1.452,2.77,2.817,4.169,4.212c2.152,2.144,3.568,4.68,4.067,7.689
			c0.745,4.487-0.405,8.463-3.443,11.825c-1.673,1.852-3.473,3.597-5.292,5.31c-3.022,2.846-7.577,2.919-10.736,0.231
			c-0.31-0.264-0.596-0.373-1.013-0.364c-0.972,0.022-1.808-0.378-2.492-1.061c-0.691-0.689-1.358-1.401-1.989-2.055
			c-0.67,0-1.243,0.051-1.803-0.01c-1.477-0.161-2.69-0.852-3.736-1.901c-5.142-5.159-10.298-10.304-15.445-15.459
			c-0.184-0.184-0.32-0.416-0.41-0.534c-0.604,0.259-1.041,0.531-1.514,0.631c-0.873,0.184-1.645-0.108-2.275-0.742
			c-0.788-0.792-1.57-1.59-2.33-2.361c-1.001,0.164-1.934,0.332-2.871,0.462c-0.517,0.072-1.042,0.094-1.564,0.109
			c-0.715,0.021-1.016-0.191-1.029-0.681c-0.014-0.502,0.289-0.696,0.981-0.761c1.086-0.102,2.19-0.162,3.248-0.406
			c6.39-1.476,11.099-6.597,12.073-13.059c1.272-8.436-4.648-16.527-13.046-17.816c-0.774-0.119-1.56-0.167-2.342-0.226
			c-0.724-0.055-1.013-0.251-1.006-0.732c0.008-0.499,0.358-0.735,1.097-0.714c3.44,0.096,6.63,1.034,9.436,3.037
			c5.179,3.696,7.635,8.78,7.429,15.128c-0.033,1.014-0.228,2.034-0.451,3.027c-0.122,0.542-0.034,0.886,0.373,1.245
			c0.552,0.487,1.051,1.035,1.573,1.557C63.681,25.519,63.79,26.483,62.679,28.229z M55.48,35.467c0.092,0.099,0.2,0.224,0.316,0.34
			C61.013,41.025,66.23,46.244,71.45,51.46c0.218,0.218,0.448,0.428,0.695,0.613c2.455,1.84,5.995,0.7,6.888-2.237
			c0.533-1.754,0.085-3.286-1.2-4.578c-1.545-1.552-3.096-3.099-4.646-4.645c-0.112-0.112-0.245-0.203-0.417-0.343
			c-0.416,0.438-0.799,0.861-1.204,1.263c-1.058,1.05-2.062,1.064-3.108,0.026c-1.841-1.828-3.675-3.664-5.504-5.504
			c-1.026-1.032-1.013-2.057,0.018-3.106c0.413-0.42,0.826-0.84,1.201-1.222c-0.867-0.874-1.685-1.699-2.465-2.484
			C59.664,31.285,57.598,33.35,55.48,35.467z M82.463,56.84c0.228,0.166,0.428,0.329,0.645,0.467c2.599,1.657,5.909,1.359,8.159-0.8
			c1.717-1.648,3.449-3.291,5.037-5.059c3.351-3.731,4.221-8.04,2.632-12.806c-0.604-1.811-1.654-3.363-3.009-4.709
			c-1.367-1.359-2.749-2.705-4.084-4.096c-3.627-3.778-3.6-9.506,0.041-13.258c0.597-0.615,1.21-1.213,1.814-1.821
			c0.134-0.135,0.279-0.264,0.388-0.418c0.153-0.215,0.333-0.508,0.047-0.683c-0.163-0.101-0.469,0.012-0.705,0.058
			c-0.08,0.015-0.145,0.118-0.212,0.185c-0.739,0.742-1.503,1.462-2.211,2.232c-2,2.173-2.946,4.756-2.781,7.7
			c0.153,2.727,1.269,5.039,3.22,6.956c1.375,1.351,2.752,2.703,4.084,4.096c4.062,4.249,4.357,10.941,0.554,15.365
			c-1.764,2.052-3.747,3.925-5.722,5.783c-1.32,1.242-2.993,1.667-4.777,1.247c-0.863-0.203-1.674-0.623-2.592-0.977
			c0.062-0.043-0.002-0.011-0.05,0.037C82.792,56.487,82.65,56.642,82.463,56.84z M59.738,23.583
			c-0.957,2.328-2.225,4.286-3.905,5.968c-1.693,1.695-3.674,2.961-5.956,3.905c0.689,0.681,1.285,1.294,1.908,1.877
			c0.555,0.52,1.068,0.505,1.64-0.006c0.142-0.126,0.271-0.267,0.405-0.402c2.269-2.269,4.538-4.538,6.807-6.807
			c0.336-0.336,0.687-0.659,1.004-1.012c0.483-0.537,0.484-1.057-0.008-1.583C61.05,24.898,60.441,24.299,59.738,23.583z
			 M65.145,32.743c-0.338,0.359-0.709,0.762-1.088,1.156c-0.537,0.558-0.546,0.676-0.005,1.218c1.782,1.786,3.567,3.568,5.352,5.351
			c0.067,0.067,0.135,0.134,0.204,0.2c0.247,0.234,0.509,0.255,0.759,0.019c0.481-0.454,0.952-0.919,1.396-1.348
			C69.545,37.129,67.393,34.984,65.145,32.743z M77.353,53.838c0.669,0.639,1.254,1.29,1.931,1.822
			c0.8,0.628,1.845,0.492,2.52-0.219c0.651-0.685,0.74-1.697,0.119-2.473c-0.529-0.66-1.158-1.239-1.797-1.91
			C79.478,52.289,78.612,53.176,77.353,53.838z"/>
		<path style="fill:#0D3393;" d="M86.701,60c-1.891,0-3.791-0.67-5.374-2.017c-0.286-0.243-0.539-0.314-0.898-0.321
			c-0.027,0-0.054,0.001-0.08,0.001c-0.944,0-1.798-0.375-2.538-1.112c-0.481-0.48-0.95-0.971-1.403-1.447l-0.537-0.559
			c-0.19,0.001-0.372,0.005-0.549,0.011c-0.421,0.008-0.814,0.022-1.201-0.022c-1.429-0.155-2.685-0.793-3.839-1.951
			c-3.042-3.051-6.089-6.099-9.135-9.146c-2.104-2.104-4.208-4.209-6.31-6.315c-0.144-0.143-0.261-0.313-0.345-0.437
			c-0.001-0.001-0.002-0.003-0.003-0.004c-0.148,0.066-0.286,0.133-0.418,0.195c-0.357,0.171-0.664,0.32-1.001,0.39
			c-0.896,0.19-1.734-0.085-2.433-0.789c-0.549-0.551-1.095-1.107-1.633-1.653l-0.636-0.646l-0.78,0.131
			c-0.691,0.116-1.343,0.226-2.007,0.318c-0.542,0.074-1.101,0.096-1.583,0.111c-0.457,0.026-0.775-0.067-0.973-0.253
			c-0.151-0.142-0.227-0.337-0.235-0.597c-0.02-0.731,0.564-0.884,1.138-0.938c0.208-0.02,0.417-0.038,0.626-0.056
			c0.863-0.074,1.755-0.152,2.599-0.346c6.29-1.454,10.977-6.524,11.942-12.917c1.249-8.286-4.659-16.355-12.902-17.62
			c-0.664-0.102-1.35-0.152-2.014-0.2l-0.315-0.024c-0.583-0.044-1.177-0.186-1.166-0.907c0.004-0.252,0.084-0.455,0.239-0.603
			c0.212-0.202,0.553-0.283,1.035-0.28c3.614,0.101,6.821,1.134,9.533,3.069c5.186,3.701,7.709,8.84,7.501,15.274
			c-0.035,1.065-0.249,2.144-0.455,3.06c-0.111,0.497-0.031,0.769,0.319,1.078c0.396,0.349,0.768,0.733,1.129,1.104
			c0.15,0.154,0.3,0.308,0.452,0.46c1.393,1.395,1.515,2.417,0.459,4.136c0.019,0.013,0.038,0.026,0.057,0.038
			c0.158,0.106,0.336,0.226,0.489,0.377c2.474,2.47,4.947,4.942,7.419,7.415c2.679,2.677,5.357,5.356,8.037,8.031
			c1.159,1.159,1.785,2.447,1.912,3.937c0.028,0.34,0.022,0.673,0.013,1.057c-0.003,0.162-0.005,0.33-0.007,0.51l0.364,0.359
			c0.372,0.364,0.774,0.76,1.185,1.143c1.238,1.153,1.727,2.309,1.537,3.63c1.542,1.46,3.88,1.536,5.355,0.158
			c1.952-1.82,3.846-3.618,5.562-5.612c3.311-3.843,3.059-9.581-0.586-13.344c-0.762-0.786-1.553-1.571-2.317-2.331
			c-0.624-0.619-1.248-1.24-1.864-1.867c-2.218-2.256-3.385-4.989-3.473-8.122c-0.089-3.209,0.976-6.055,3.165-8.46
			c0.797-0.876,1.618-1.695,2.437-2.433c0.407-0.367,0.923-0.634,1.379-0.712c0.716-0.123,1.407,0.117,1.852,0.644
			c0.45,0.534,0.572,1.267,0.326,1.962c-0.132,0.373-0.383,0.758-0.766,1.175c-0.353,0.384-0.728,0.755-1.091,1.114
			c-0.353,0.349-0.717,0.71-1.058,1.079c-2.784,3.012-2.801,7.544-0.042,10.54c0.995,1.08,2.061,2.13,3.093,3.147
			c0.359,0.353,0.716,0.705,1.072,1.06c2.245,2.237,3.629,4.855,4.116,7.783c0.755,4.547-0.418,8.575-3.485,11.97
			c-1.734,1.92-3.573,3.691-5.301,5.32C90.7,59.246,88.705,60,86.701,60z M80.475,57.317c0.425,0,0.739,0.119,1.076,0.403
			c3.125,2.661,7.543,2.567,10.505-0.224c1.723-1.623,3.556-3.389,5.282-5.301c2.993-3.312,4.137-7.243,3.401-11.681
			c-0.475-2.855-1.827-5.41-4.019-7.595c-0.356-0.354-0.713-0.706-1.07-1.058c-1.035-1.019-2.104-2.072-3.105-3.159
			c-2.884-3.129-2.865-7.862,0.042-11.008c0.346-0.374,0.713-0.738,1.069-1.09c0.36-0.357,0.732-0.725,1.08-1.102
			c0.351-0.382,0.577-0.728,0.693-1.057c0.205-0.578,0.106-1.184-0.264-1.624c-0.364-0.433-0.936-0.628-1.529-0.527
			c-0.395,0.069-0.847,0.303-1.207,0.629c-0.813,0.731-1.624,1.541-2.413,2.408c-2.129,2.338-3.164,5.103-3.076,8.219
			c0.085,3.043,1.22,5.697,3.373,7.89c0.616,0.626,1.239,1.245,1.862,1.864c0.766,0.76,1.558,1.547,2.323,2.336
			c3.769,3.892,4.028,9.829,0.6,13.81c-1.728,2.006-3.629,3.812-5.589,5.639c-1.631,1.522-4.22,1.424-5.895-0.226L83.549,54.8
			l0.015-0.089c0.205-1.235-0.245-2.319-1.417-3.411c-0.415-0.387-0.818-0.785-1.192-1.151l-0.468-0.458v-0.073
			c0-0.209,0.004-0.404,0.008-0.589c0.007-0.375,0.013-0.698-0.015-1.021c-0.119-1.405-0.71-2.622-1.811-3.721
			c-2.68-2.676-5.359-5.355-8.037-8.032c-2.472-2.472-4.945-4.944-7.419-7.415c-0.128-0.127-0.285-0.233-0.437-0.335
			c-0.07-0.047-0.138-0.092-0.2-0.138l-0.131-0.095l0.087-0.136c1.062-1.669,0.99-2.532-0.324-3.848
			c-0.153-0.154-0.304-0.309-0.455-0.464c-0.356-0.366-0.724-0.745-1.11-1.085c-0.447-0.394-0.567-0.79-0.428-1.412
			c0.202-0.9,0.413-1.959,0.447-2.995c0.204-6.312-2.271-11.352-7.357-14.983c-2.654-1.894-5.797-2.905-9.341-3.004
			C43.58,0.34,43.317,0.396,43.178,0.53c-0.086,0.083-0.13,0.2-0.132,0.359c-0.004,0.27,0.057,0.498,0.847,0.558l0.314,0.023
			c0.671,0.049,1.364,0.1,2.042,0.204c8.427,1.293,14.468,9.542,13.191,18.012c-0.985,6.534-5.776,11.716-12.204,13.201
			c-0.868,0.2-1.773,0.278-2.648,0.354c-0.208,0.018-0.416,0.036-0.624,0.056c-0.705,0.066-0.834,0.256-0.825,0.584
			c0.005,0.165,0.044,0.278,0.126,0.355c0.124,0.117,0.359,0.164,0.726,0.158c0.473-0.014,1.021-0.035,1.546-0.108
			c0.659-0.091,1.309-0.2,1.997-0.316l0.957-0.16l0.762,0.773c0.537,0.545,1.083,1.101,1.631,1.652
			c0.621,0.624,1.333,0.856,2.117,0.694c0.297-0.063,0.587-0.202,0.923-0.364c0.173-0.082,0.357-0.17,0.559-0.257l0.124-0.053
			l0.082,0.108c0.026,0.034,0.056,0.078,0.09,0.127c0.082,0.12,0.183,0.267,0.305,0.388c2.102,2.106,4.206,4.21,6.31,6.315
			c3.047,3.047,6.093,6.095,9.135,9.147c1.097,1.099,2.284,1.704,3.632,1.851c0.368,0.04,0.752,0.027,1.155,0.019
			c0.201-0.005,0.41-0.011,0.63-0.011h0.073l0.64,0.667c0.452,0.472,0.919,0.961,1.397,1.438c0.674,0.671,1.447,1.012,2.296,1.012
			C80.394,57.319,80.436,57.317,80.475,57.317z M86.703,58.549c-1.262,0-2.536-0.361-3.688-1.096
			c-0.146-0.093-0.284-0.198-0.429-0.306c-0.073-0.055-0.147-0.111-0.225-0.167l-0.16-0.116l0.311-0.329
			c0.057-0.059,0.111-0.117,0.163-0.171l-0.05-0.019l0.216-0.151c0.123-0.112,0.198-0.086,0.228-0.078l0.102,0.034l0.005,0.039
			c0.248,0.098,0.489,0.2,0.727,0.301c0.588,0.249,1.145,0.485,1.719,0.62c1.747,0.415,3.345-0.005,4.619-1.204
			c1.832-1.722,3.907-3.672,5.709-5.769c3.697-4.299,3.457-10.947-0.547-15.135c-1.32-1.38-2.707-2.743-4.048-4.061l-0.031-0.03
			c-2.018-1.982-3.12-4.361-3.272-7.07c-0.166-2.975,0.785-5.608,2.827-7.826c0.496-0.539,1.025-1.06,1.537-1.564
			c0.226-0.224,0.454-0.448,0.678-0.673c0.016-0.016,0.031-0.033,0.046-0.05c0.062-0.071,0.139-0.16,0.256-0.182
			c0.049-0.009,0.101-0.022,0.154-0.035c0.231-0.055,0.488-0.115,0.674-0.001c0.154,0.094,0.208,0.216,0.225,0.302
			c0.043,0.218-0.081,0.431-0.222,0.628c-0.096,0.135-0.213,0.249-0.326,0.361l-0.08,0.079c-0.217,0.218-0.435,0.435-0.654,0.652
			c-0.388,0.387-0.777,0.774-1.158,1.167c-3.594,3.701-3.612,9.298-0.042,13.018c1.025,1.067,2.095,2.125,3.129,3.149l0.952,0.943
			c1.448,1.44,2.475,3.047,3.051,4.778c1.615,4.841,0.719,9.206-2.667,12.976c-1.49,1.658-3.128,3.229-4.713,4.748l-0.333,0.32
			C90.064,57.9,88.395,58.549,86.703,58.549z M82.721,56.817c0.024,0.018,0.049,0.036,0.073,0.054
			c0.138,0.104,0.268,0.202,0.407,0.291c2.564,1.635,5.758,1.323,7.944-0.779l0.334-0.321c1.58-1.514,3.214-3.08,4.695-4.731
			c3.295-3.668,4.168-7.92,2.596-12.635c-0.559-1.68-1.558-3.241-2.967-4.642l-0.952-0.943c-1.037-1.025-2.107-2.086-3.134-3.156
			c-3.703-3.857-3.684-9.659,0.042-13.497c0.383-0.395,0.772-0.783,1.162-1.172c0.218-0.216,0.437-0.433,0.652-0.651l0.084-0.082
			c0.106-0.105,0.208-0.204,0.287-0.314c0.046-0.065,0.185-0.259,0.164-0.36c-0.003-0.011-0.008-0.04-0.067-0.076
			c-0.066-0.041-0.275,0.009-0.413,0.042c-0.058,0.013-0.116,0.028-0.17,0.038c-0.004,0.005-0.039,0.046-0.061,0.07
			c-0.02,0.024-0.04,0.047-0.061,0.067c-0.226,0.226-0.454,0.451-0.682,0.675c-0.508,0.501-1.034,1.019-1.525,1.551
			c-1.976,2.147-2.896,4.695-2.735,7.574c0.147,2.62,1.213,4.923,3.169,6.842l0.031,0.031c1.343,1.319,2.733,2.684,4.056,4.069
			c4.124,4.314,4.369,11.165,0.558,15.596c-1.813,2.111-3.896,4.069-5.734,5.796c-1.344,1.266-3.097,1.724-4.934,1.29
			c-0.604-0.142-1.173-0.384-1.775-0.639c-0.243-0.104-0.489-0.208-0.744-0.309c-0.084,0.086-0.167,0.174-0.262,0.274L82.721,56.817
			z M80.416,56.231c-0.434,0-0.867-0.143-1.238-0.434c-0.479-0.376-0.902-0.799-1.351-1.248c-0.193-0.194-0.39-0.391-0.595-0.586
			l-0.173-0.166l0.212-0.111c1.203-0.632,2.061-1.492,2.702-2.707l0.112-0.212l0.166,0.174c0.195,0.205,0.391,0.402,0.582,0.596
			c0.438,0.442,0.852,0.86,1.224,1.324c0.657,0.82,0.604,1.931-0.128,2.7C81.508,56.004,80.962,56.231,80.416,56.231z
			 M77.641,53.877c0.146,0.143,0.288,0.286,0.43,0.427c0.441,0.441,0.857,0.857,1.32,1.22c0.705,0.553,1.646,0.473,2.288-0.201
			c0.611-0.642,0.655-1.565,0.109-2.247c-0.36-0.449-0.768-0.861-1.2-1.297c-0.14-0.142-0.282-0.284-0.423-0.431
			C79.542,52.449,78.732,53.261,77.641,53.877z M74.791,53.139c-0.977,0-1.933-0.315-2.75-0.929c-0.226-0.17-0.46-0.376-0.713-0.628
			c-5.22-5.216-10.437-10.434-15.654-15.654c-0.084-0.084-0.163-0.171-0.236-0.251l-0.197-0.214l0.117-0.119l6.35-6.346l2.707,2.729
			l-1.32,1.343c-0.972,0.99-0.978,1.899-0.02,2.863c1.829,1.84,3.663,3.675,5.504,5.503c0.981,0.976,1.864,0.967,2.865-0.026
			c0.271-0.27,0.532-0.549,0.8-0.834c0.131-0.14,0.264-0.282,0.401-0.425l0.11-0.116l0.281,0.225
			c0.104,0.081,0.193,0.151,0.272,0.229c1.551,1.546,3.103,3.095,4.648,4.647c1.366,1.372,1.784,2.971,1.242,4.748
			c-0.439,1.449-1.517,2.549-2.956,3.021C75.762,53.063,75.274,53.139,74.791,53.139z M55.718,35.472
			c0.062,0.069,0.129,0.142,0.2,0.212c5.217,5.219,10.434,10.437,15.654,15.653c0.242,0.243,0.463,0.438,0.677,0.599
			c1.128,0.845,2.544,1.083,3.885,0.642c1.331-0.435,2.327-1.453,2.734-2.792c0.501-1.647,0.112-3.129-1.158-4.406
			c-1.545-1.552-3.094-3.098-4.646-4.644c-0.069-0.069-0.148-0.131-0.241-0.202l-0.037-0.03c-0.098,0.104-0.195,0.206-0.291,0.309
			c-0.271,0.29-0.535,0.572-0.809,0.844c-1.121,1.11-2.248,1.119-3.351,0.026c-1.842-1.828-3.676-3.666-5.506-5.506
			c-1.092-1.097-1.086-2.224,0.018-3.347l1.082-1.1l-2.223-2.241L55.718,35.472z M70.003,41.027c-0.174,0-0.349-0.078-0.514-0.235
			c-0.069-0.066-0.138-0.135-0.207-0.202l-1.691-1.689c-1.221-1.22-2.442-2.44-3.661-3.663c-0.607-0.608-0.606-0.826,0.003-1.46
			c0.265-0.276,0.527-0.556,0.776-0.822l0.432-0.46l6.867,6.845l-0.53,0.516c-0.322,0.313-0.655,0.638-0.992,0.956
			C70.333,40.955,70.169,41.027,70.003,41.027z M65.15,32.99l-0.187,0.201c-0.251,0.268-0.514,0.549-0.781,0.826
			c-0.477,0.496-0.477,0.505-0.007,0.977c1.219,1.221,2.44,2.441,3.661,3.66l1.691,1.689c0.066,0.067,0.132,0.133,0.2,0.197
			c0.19,0.179,0.345,0.185,0.523,0.02c0.336-0.318,0.667-0.64,0.987-0.953l0.28-0.271L65.15,32.99z M52.59,35.889
			c-0.311,0-0.617-0.143-0.923-0.431c-0.431-0.403-0.849-0.821-1.295-1.266c-0.199-0.198-0.403-0.402-0.617-0.613l-0.185-0.183
			l0.241-0.1c2.336-0.966,4.266-2.23,5.9-3.867c1.644-1.646,2.909-3.579,3.868-5.911l0.1-0.242l0.183,0.187
			c0.218,0.222,0.426,0.432,0.628,0.636c0.45,0.455,0.867,0.875,1.27,1.306c0.548,0.586,0.551,1.214,0.009,1.816
			c-0.226,0.251-0.47,0.489-0.706,0.72c-0.102,0.1-0.204,0.199-0.304,0.299l-6.927,6.929c-0.096,0.098-0.191,0.195-0.292,0.286
			C53.217,35.745,52.901,35.889,52.59,35.889z M50.181,33.515c0.149,0.147,0.293,0.291,0.435,0.433
			c0.442,0.442,0.858,0.857,1.287,1.259c0.485,0.453,0.893,0.449,1.407-0.008c0.096-0.086,0.185-0.178,0.275-0.27l0.123-0.127
			l6.807-6.807c0.101-0.101,0.204-0.202,0.307-0.302c0.233-0.226,0.473-0.461,0.691-0.704c0.426-0.474,0.424-0.89-0.005-1.349
			c-0.401-0.429-0.815-0.847-1.263-1.299c-0.145-0.147-0.294-0.297-0.447-0.452c-0.965,2.268-2.223,4.162-3.843,5.783
			C54.344,31.286,52.454,32.544,50.181,33.515z"/>
	</g>
	<g>
		<path style="fill:#0D3393;" d="M58.451,17.353c-0.001,8.183-6.617,14.794-14.801,14.791c-8.168-0.003-14.784-6.638-14.777-14.821
			c0.006-8.154,6.667-14.778,14.843-14.761C51.846,2.579,58.452,9.21,58.451,17.353z M43.67,4.048
			c-7.323-0.038-13.306,5.956-13.343,13.367c-0.036,7.222,5.941,13.243,13.191,13.289c7.413,0.047,13.437-5.855,13.485-13.211
			C57.05,10.092,51.095,4.086,43.67,4.048z"/>
		<path style="fill:#0D3393;" d="M43.654,32.316c-0.001,0-0.003,0-0.005,0c-3.996-0.001-7.752-1.562-10.576-4.394
			s-4.377-6.596-4.374-10.6c0.003-3.983,1.564-7.731,4.395-10.553c2.833-2.826,6.594-4.381,10.589-4.381c0.011,0,0.022,0,0.032,0
			c8.221,0.017,14.908,6.73,14.907,14.963h-0.173h0.173c-0.001,4.003-1.557,7.763-4.383,10.587
			C51.417,30.762,47.657,32.316,43.654,32.316z M43.684,2.735c-3.904,0-7.577,1.519-10.346,4.28
			c-2.765,2.758-4.29,6.418-4.293,10.309c-0.003,3.912,1.515,7.589,4.274,10.356c2.758,2.767,6.427,4.291,10.331,4.292
			c0.001,0,0.003,0,0.005,0c3.911,0,7.583-1.518,10.343-4.276c2.76-2.758,4.28-6.431,4.281-10.343
			C58.28,9.309,51.747,2.752,43.715,2.735C43.705,2.735,43.695,2.735,43.684,2.735z M43.605,30.877c-0.03,0-0.059,0-0.089,0
			c-7.404-0.047-13.398-6.086-13.362-13.463c0.018-3.63,1.435-7.039,3.99-9.598c2.539-2.543,5.895-3.941,9.457-3.941
			c0.024,0,0.047,0,0.07,0c3.645,0.018,7.057,1.449,9.606,4.028c2.537,2.567,3.922,5.973,3.898,9.59
			C57.127,24.892,51.047,30.877,43.605,30.877z M43.601,4.221c-3.47,0-6.739,1.362-9.212,3.839
			c-2.491,2.495-3.872,5.817-3.889,9.355c-0.036,7.187,5.805,13.071,13.019,13.116c0.028,0,0.057,0,0.086,0
			c7.254,0.001,13.179-5.831,13.226-13.04c0.023-3.525-1.326-6.844-3.798-9.346c-2.485-2.513-5.809-3.907-9.362-3.925l0,0
			C43.646,4.221,43.623,4.221,43.601,4.221z"/>
	</g>
	<g>
		<path style="fill:#0D3393;" d="M43.572,11.491c3.188-0.08,5.892,2.512,5.992,5.743c0.099,3.189-2.504,5.947-5.697,6.038
			c-3.294,0.094-6.003-2.472-6.101-5.778C37.67,14.287,40.295,11.573,43.572,11.491z M43.693,21.835
			c2.439-0.017,4.446-2.046,4.43-4.48c-0.016-2.446-2.031-4.428-4.485-4.411c-2.46,0.017-4.455,2.03-4.426,4.466
			C39.241,19.865,41.252,21.851,43.693,21.835z"/>
		<path style="fill:#0D3393;" d="M43.696,23.447c-3.283,0-6.004-2.634-6.103-5.949c-0.047-1.573,0.536-3.082,1.641-4.25
			c1.139-1.203,2.678-1.889,4.334-1.931l0,0c0.05-0.001,0.1-0.002,0.149-0.002c3.233,0,5.918,2.622,6.02,5.913
			c0.049,1.587-0.54,3.115-1.658,4.301c-1.12,1.189-2.615,1.869-4.207,1.914C43.814,23.446,43.755,23.447,43.696,23.447z
			 M43.576,11.663L43.576,11.663c-1.563,0.039-3.016,0.686-4.092,1.823c-1.041,1.1-1.591,2.522-1.546,4.002
			c0.095,3.185,2.732,5.707,5.924,5.612c1.5-0.042,2.909-0.684,3.965-1.806c1.055-1.12,1.611-2.559,1.564-4.054
			c-0.096-3.105-2.627-5.579-5.675-5.579C43.671,11.661,43.623,11.662,43.576,11.663z M43.664,22.007
			c-2.524,0-4.595-2.055-4.624-4.596c-0.014-1.216,0.452-2.369,1.314-3.248c0.873-0.889,2.039-1.384,3.283-1.393
			c0.011,0,0.022,0,0.033,0c1.221,0,2.373,0.472,3.246,1.331c0.882,0.867,1.372,2.021,1.38,3.25
			c0.016,2.549-2.048,4.637-4.601,4.654l0,0C43.685,22.007,43.674,22.007,43.664,22.007z M43.669,13.117c-0.01,0-0.02,0-0.03,0
			c-1.152,0.008-2.232,0.466-3.04,1.289c-0.797,0.812-1.228,1.878-1.215,3.002c0.027,2.352,1.944,4.255,4.279,4.255
			c0.009,0,0.019,0,0.028,0l0,0c2.363-0.016,4.274-1.948,4.259-4.307c-0.007-1.137-0.461-2.205-1.277-3.007
			C45.865,13.553,44.799,13.117,43.669,13.117z"/>
	</g>
</g>
</svg>
